<svg width="16" height="16" viewBox="0 0 16 16" fill="none" xmlns="http://www.w3.org/2000/svg">
<g clip-path="url(#clip0)">
<path d="M15.0893 2.62506C14.8634 2.39887 14.5953 2.28576 14.2858 2.28576H13.1431V1.42858C13.1431 1.0358 13.0031 0.699469 12.7233 0.419706C12.4435 0.139944 12.1073 0 11.7143 0H11.1431C10.7501 0 10.4139 0.139944 10.1341 0.419737C9.85423 0.699469 9.71435 1.03583 9.71435 1.42861V2.28579H6.28596V1.42861C6.28596 1.03583 6.14602 0.6995 5.86622 0.419737C5.58649 0.139944 5.25019 0 4.85725 0H4.28588C3.89303 0 3.5567 0.139944 3.2769 0.419737C2.99717 0.699469 2.8572 1.03583 2.8572 1.42861V2.28579H1.71444C1.40485 2.28579 1.13703 2.3989 0.910838 2.62509C0.684645 2.85126 0.571533 3.1192 0.571533 3.4287V14.8573C0.571533 15.1666 0.684645 15.4344 0.910838 15.6608C1.137 15.8869 1.40482 16 1.71444 16H14.2856C14.5951 16 14.8632 15.8869 15.0891 15.6608C15.3153 15.4345 15.4285 15.1665 15.4285 14.8573V3.42867C15.4284 3.11907 15.3154 2.85126 15.0893 2.62506ZM4.28578 14.8571H1.71444V12.2856H4.28578V14.8571ZM4.28578 11.7143H1.71444V8.85733H4.28578V11.7143ZM4.28578 8.28564H1.71444V5.71433H4.28578V8.28564ZM4.08501 4.20091C4.02844 4.14434 4.0002 4.07751 4.0002 4.00005V1.42871C4.0002 1.35134 4.02844 1.28432 4.08501 1.22785C4.14159 1.17127 4.20841 1.14304 4.28588 1.14304H4.85725C4.93462 1.14304 5.00164 1.17127 5.05812 1.22785C5.11469 1.28436 5.14299 1.35134 5.14299 1.42871V4.00005C5.14299 4.07754 5.11456 4.14437 5.05812 4.20091C5.00161 4.25748 4.93471 4.28572 4.85725 4.28572H4.28588C4.20851 4.28575 4.14159 4.25748 4.08501 4.20091ZM7.71436 14.8571H4.85716V12.2856H7.71436V14.8571ZM7.71436 11.7143H4.85716V8.85733H7.71436V11.7143ZM7.71436 8.28564H4.85716V5.71433H7.71436V8.28564ZM11.1431 14.8571H8.28589V12.2856H11.1431V14.8571ZM11.1431 11.7143H8.28589V8.85733H11.1431V11.7143ZM11.1431 8.28564H8.28589V5.71433H11.1431V8.28564ZM10.9421 4.20091C10.8856 4.14434 10.8574 4.07751 10.8574 4.00005V1.42871C10.8574 1.35134 10.8856 1.28432 10.9421 1.22785C10.9986 1.17127 11.0656 1.14304 11.1431 1.14304H11.7143C11.7918 1.14304 11.8587 1.17127 11.9153 1.22785C11.9719 1.28436 12 1.35134 12 1.42871V4.00005C12 4.07754 11.9717 4.14437 11.9153 4.20091C11.8588 4.25748 11.7918 4.28572 11.7143 4.28572H11.1431C11.0656 4.28575 10.9984 4.25748 10.9421 4.20091ZM14.2856 14.8571H11.7141V12.2856H14.2856V14.8571ZM14.2856 11.7143H11.7141V8.85733H14.2856V11.7143ZM14.2856 8.28564H11.7141V5.71433H14.2856V8.28564Z" fill="#3BB8E4"/>
</g>
<defs>
<clipPath id="clip0">
<rect width="16" height="16" fill="white"/>
</clipPath>
</defs>
</svg>
